<svg xmlns="http://www.w3.org/2000/svg" viewBox="0 0 198.36 270"><defs><style>.cls-1{fill:lime;}</style></defs><g id="Camada_2" data-name="Camada 2"><g id="Camada_1-2" data-name="Camada 1"><text/><rect class="cls-1" x="50.48" y="122.66" width="147.88" height="147.34"/><polygon class="cls-1" points="124.42 0 50.48 122.66 198.36 122.66 124.42 0"/><path d="M66.78,117.3H58.63V25.6h8.15Z"/><path d="M115.57,117.3h-7.8v-50l-17.16.47V117.3h-7.8v-57h7.8v1.58c3-.39,6.11-.8,9.19-1.23a77.15,77.15,0,0,1,9.26-.7q6.51,0,6.51,6.39Z"/><path d="M151.41,32.46h-11V60.29h9.73v6.86h-9.73V117.3h-7.68V67.15h-6.62V60.29h6.62V32.22q0-6.62,6.57-6.62h12.13Z"/><path d="M192.81,110.68q0,6.63-6.62,6.62H166.62q-6.56,0-6.56-6.62V66.91q0-6.61,6.56-6.62h19.57q6.63,0,6.62,6.62Zm-7.79-.23V67.15H167.85v43.3Z"/><path d="M116,252.94a9.51,9.51,0,0,1-2.8,7.11,9.76,9.76,0,0,1-7.15,2.76H68.19a9.44,9.44,0,0,1-9.86-9.87V123.73H70.68V251.88h33V123.73H116Z"/><path d="M193.13,197.67a9.58,9.58,0,0,1-9.95,10h-36.8v55.19H134V123.73h49.15a9.8,9.8,0,0,1,7.15,2.75,9.54,9.54,0,0,1,2.8,7.11Zm-12.35-1.07V134.66h-34.4V196.6Z"/></g></g></svg>