<svg xmlns="http://www.w3.org/2000/svg" viewBox="0 0 134.8 237.2"><g id="Camada_2" data-name="Camada 2"><g id="Camada_1-2" data-name="Camada 1"><path d="M8.45,91.7H.31V0H8.45Z"/><path d="M57.24,91.7H49.45v-50l-17.17.47V91.7H24.49v-57h7.79v1.58c3-.39,6.11-.8,9.2-1.23a77,77,0,0,1,9.26-.7q6.49,0,6.5,6.38Z"/><path d="M93.08,6.86h-11V34.69h9.72v6.85H82.07V91.7H74.39V41.54H67.77V34.69h6.62V6.62Q74.39,0,81,0H93.08Z"/><path d="M134.49,85.08q0,6.61-6.62,6.62H108.3q-6.57,0-6.57-6.62V41.31q0-6.62,6.57-6.62h19.57q6.62,0,6.62,6.62Zm-7.8-.24V41.54H109.53v43.3Z"/><path d="M57.67,227.34a9.57,9.57,0,0,1-2.79,7.11,9.78,9.78,0,0,1-7.16,2.75H9.86a9.62,9.62,0,0,1-7.11-2.75A9.66,9.66,0,0,1,0,227.34V98.13H12.35V226.27h33V98.13H57.67Z"/><path d="M134.8,172.06a9.59,9.59,0,0,1-10,10H88.06V237.2H75.71V98.13h49.14a9.78,9.78,0,0,1,7.15,2.75,9.54,9.54,0,0,1,2.8,7.11ZM122.45,171V109.06H88.06V171Z"/></g></g></svg>